PathFileType	4	(X/Y/Z)
DataRate	CameraRate	NumFrames	NumMarkers	Units	OrigDataRate	OrigDataStartFrame	OrigNumFrames	
  100.0	  100.0	    4	     55	     mm	  100.0	      1	    516
Frame#	Time	LASI			RASI			LPSI			RPSI			RTH1			RTH2			RTH3			RLFC			RMFC			LTH1			LTH2			LTH3			LLFC			LMFC			RTB1			RTB2			RTB3			RLMAL			RMMAL			LTB1			LTB2			LTB3			LMMAL			LLMAL			RCAL			RTOE			RMT5			LCAL			LTOE			LMT5			LACR			RACR			CLAV			LASH			LPSH			RASH			RPSH			RUA1			RUA2			RUA3			RLEL			RMEL			LUA1			LUA2			LUA3			LLEL			LMEL			RFAsuperior			RFAradius			RFAulna			LFAsuperior			LFAradius			LFAulna			RHJC			LHJC			
		X1	Y1	Z1	X2	Y2	Z2	X3	Y3	Z3	X4	Y4	Z4	X5	Y5	Z5	X6	Y6	Z6	X7	Y7	Z7	X8	Y8	Z8	X9	Y9	Z9	X10	Y10	Z10	X11	Y11	Z11	X12	Y12	Z12	X13	Y13	Z13	X14	Y14	Z14	X15	Y15	Z15	X16	Y16	Z16	X17	Y17	Z17	X18	Y18	Z18	X19	Y19	Z19	X20	Y20	Z20	X21	Y21	Z21	X22	Y22	Z22	X23	Y23	Z23	X24	Y24	Z24	X25	Y25	Z25	X26	Y26	Z26	X27	Y27	Z27	X28	Y28	Z28	X29	Y29	Z29	X30	Y30	Z30	X31	Y31	Z31	X32	Y32	Z32	X33	Y33	Z33	X34	Y34	Z34	X35	Y35	Z35	X36	Y36	Z36	X37	Y37	Z37	X38	Y38	Z38	X39	Y39	Z39	X40	Y40	Z40	X41	Y41	Z41	X42	Y42	Z42	X43	Y43	Z43	X44	Y44	Z44	X45	Y45	Z45	X46	Y46	Z46	X47	Y47	Z47	X48	Y48	Z48	X49	Y49	Z49	X50	Y50	Z50	X51	Y51	Z51	X52	Y52	Z52	X53	Y53	Z53	X54	Y54	Z54	X55	Y55	Z55	

4	0.04000	540.19655	1030.53112	-382.10047	276.47495	1030.87502	-381.69359	450.38857	1080.21951	-575.18154	369.15511	1077.82376	-575.69759	217.38532	894.87142	-448.05350	234.09397	760.79536	-401.05509	244.73931	654.61434	-489.20090	246.35048	543.29315	-481.34874	374.30077	530.93544	-478.63482	594.38136	911.47805	-461.40138	580.81067	791.34567	-406.46554	567.81841	662.72537	-510.30114	564.56226	548.31278	-507.02809	444.82303	529.13878	-486.05846	290.13561	402.26633	-455.01372	231.41481	312.32992	-511.47441	289.06854	206.89572	-495.36122	246.09282	119.72403	-559.27501	333.40661	120.40974	-540.70840	522.69140	428.04982	-474.88081	581.94692	359.15976	-548.97741	525.53696	224.02685	-505.29971	476.03279	122.75671	-533.82658	558.27142	115.51287	-569.15530	296.13111	80.00350	-636.06744	286.72707	74.43428	-399.35572	194.92000	52.99441	-428.58540	499.53416	80.56547	-637.87604	542.91524	81.18064	-406.31702	618.13299	48.40708	-446.93852	563.35389	1564.61785	-484.09625	265.47999	1551.46095	-512.85287	393.16742	1508.63071	-417.32454	575.21361	1516.00531	-422.52564	583.91291	1520.77225	-560.46328	254.08816	1516.28840	-451.43660	256.14660	1498.47026	-593.91778	158.63096	1520.36594	-555.35270	105.43153	1436.32566	-577.94426	51.46356	1488.32123	-549.33292	-45.29238	1480.72133	-534.45134	-36.69392	1400.51330	-533.38951	676.38389	1541.29010	-522.81195	732.38566	1457.51731	-541.26307	786.37962	1509.65862	-510.92111	874.39169	1508.87395	-487.85931	883.56527	1430.81132	-491.18548	-83.34577	1486.56255	-463.96321	-77.28308	1461.92289	-262.14305	-144.23403	1458.69878	-281.97952	897.14740	1514.21513	-365.38101	857.76386	1468.84386	-221.15568	923.90130	1477.49787	-225.13882	303.14972	959.60515	-449.59975	495.09256	981.32303	-463.30645	
5	0.05000	540.19505	1030.54382	-382.08550	276.47777	1030.84358	-381.73376	450.42724	1080.20635	-575.26579	369.15319	1077.82429	-575.73689	217.39144	894.86900	-448.09904	234.08155	760.81447	-401.04537	244.80277	654.54260	-489.30670	246.21718	543.32629	-481.27690	374.31427	530.92922	-478.64922	594.39739	911.48416	-461.42946	580.80004	791.33743	-406.47714	567.80776	662.72411	-510.33143	564.56610	548.28232	-507.05865	444.80005	529.19091	-486.05694	290.89100	401.96215	-455.35169	231.39791	312.33547	-511.46893	289.06970	206.87865	-495.36622	246.11150	119.74186	-559.29790	333.39739	120.42216	-540.74262	522.70559	428.08890	-474.92624	581.94437	359.17919	-549.03192	525.52646	224.01672	-505.36207	475.96824	122.84677	-533.76720	558.27789	115.51318	-569.15998	296.12923	79.99813	-636.06945	286.69251	74.39071	-399.30667	196.73688	53.69906	-429.10238	499.54992	80.56485	-637.89581	542.91946	81.18292	-406.32782	618.13835	48.40477	-446.96400	563.41898	1564.77124	-484.37899	265.48960	1551.46234	-512.89496	393.21513	1508.61255	-417.39043	575.20300	1516.02481	-422.55531	583.90867	1520.76503	-560.50506	253.25015	1516.67805	-452.94365	256.18798	1498.48533	-594.00703	158.72810	1520.40912	-555.58836	105.46129	1436.27996	-578.04296	51.46552	1488.34058	-549.40568	-45.40391	1480.74310	-534.47709	-36.67881	1400.49081	-533.49945	676.42393	1541.30148	-522.87095	732.40400	1457.49510	-541.30111	786.39732	1509.68920	-510.95618	874.41246	1508.88634	-487.85375	883.60030	1430.84062	-491.18325	-83.32972	1486.55797	-464.02242	-77.24965	1461.91951	-262.27780	-144.17717	1458.62404	-282.09424	897.11653	1514.24743	-365.38344	857.68874	1468.89318	-221.19283	923.81346	1477.54693	-225.11451	303.17284	959.57698	-449.63909	495.11364	981.32987	-463.32068	
6	0.06000	540.18608	1030.54810	-382.09257	276.47003	1030.82823	-381.78181	450.45444	1080.18877	-575.33275	369.16852	1077.82859	-575.79235	217.39477	894.86981	-448.13770	234.07138	760.80408	-401.06753	244.82771	654.50292	-489.37335	246.14138	543.35212	-481.22763	374.31694	530.92241	-478.65096	594.40815	911.48224	-461.45525	580.78820	791.34968	-406.49159	567.80643	662.71990	-510.36015	564.57014	548.25542	-507.08637	444.78434	529.21674	-486.06459	291.11754	401.88361	-455.45203	231.38893	312.34263	-511.46132	289.06672	206.87564	-495.36566	246.12198	119.74998	-559.31138	333.39659	120.42873	-540.75460	522.72319	428.10091	-474.96050	581.94421	359.18858	-549.06516	525.51276	224.02787	-505.37590	475.94076	122.88506	-533.74648	558.28186	115.51375	-569.16043	296.13917	79.99640	-636.07526	286.68469	74.38234	-399.28961	197.76946	54.01804	-429.42765	499.56491	80.56462	-637.90788	542.92272	81.18239	-406.32598	618.13914	48.40384	-446.97239	563.44829	1564.95737	-484.75863	265.50990	1551.45868	-512.95778	393.26255	1508.59967	-417.47208	575.19884	1516.04573	-422.59071	583.92099	1520.75740	-560.55658	252.49050	1516.95418	-454.39290	256.22439	1498.48656	-594.08561	158.80118	1520.46336	-555.74695	105.47609	1436.25263	-578.12186	51.47476	1488.35978	-549.47864	-45.43759	1480.74807	-534.56055	-36.67311	1400.48043	-533.60404	676.45507	1541.30129	-522.91378	732.42365	1457.48212	-541.33013	786.41201	1509.71270	-510.98126	874.43183	1508.89858	-487.84961	883.63597	1430.85914	-491.18047	-83.31671	1486.54552	-464.08954	-77.23873	1461.91405	-262.37714	-144.13120	1458.57204	-282.20762	897.08578	1514.28173	-365.38075	857.62754	1468.93745	-221.19145	923.72037	1477.60817	-225.08620	303.18110	959.56344	-449.69166	495.12265	981.32930	-463.34175	
7	0.07000	540.17051	1030.54913	-382.12459	276.45484	1030.82849	-381.83796	450.46652	1080.16852	-575.37706	369.20076	1077.83657	-575.86655	217.39607	894.87170	-448.16663	234.06628	760.76536	-401.11445	244.81419	654.50699	-489.38626	246.14882	543.36454	-481.21803	374.30883	530.91818	-478.64314	594.40980	911.47641	-461.47918	580.77713	791.37939	-406.50988	567.81348	662.71647	-510.38468	564.57308	548.24126	-507.11059	444.77957	529.20928	-486.09985	290.75539	402.07513	-455.27710	231.39589	312.34811	-511.45510	289.06468	206.88555	-495.36250	246.12429	119.74549	-559.31220	333.40535	120.42801	-540.74417	522.73668	428.09283	-474.97588	581.94634	359.18812	-549.07285	525.49995	224.05456	-505.34967	475.95554	122.86529	-533.76634	558.28362	115.51489	-569.15603	296.15428	79.99740	-636.08095	286.70740	74.41193	-399.31291	198.03814	53.91492	-429.60191	499.57492	80.56472	-637.90995	542.92844	81.17732	-406.31920	618.13444	48.40475	-446.96331	563.46352	1565.06151	-485.04980	265.53690	1551.45154	-513.04229	393.30213	1508.59805	-417.56456	575.20276	1516.06687	-422.63244	583.95163	1520.74920	-560.61560	251.98962	1517.06337	-455.46889	256.25333	1498.47636	-594.14676	158.83541	1520.53197	-555.81598	105.47310	1436.24511	-578.17945	51.48682	1488.37609	-549.55053	-45.39219	1480.73734	-534.70040	-36.67819	1400.48514	-533.69935	676.47500	1541.29258	-522.94021	732.44742	1457.48051	-541.35279	786.42621	1509.72459	-510.98983	874.44892	1508.90835	-487.84962	883.66591	1430.86297	-491.17311	-83.30975	1486.52669	-464.16463	-77.24938	1461.90784	-262.43095	-144.11409	1458.55792	-282.30782	897.05482	1514.31596	-365.37165	857.56928	1468.97846	-221.17201	923.62553	1477.67727	-225.05911	303.17708	959.56397	-449.75616	495.12149	981.32505	-463.37127	
